PathFileType	4	(X/Y/Z)	39_2_57_p0_0-540_filt_butterworth.trc
DataRate	CameraRate	NumFrames	NumMarkers	Units	OrigDataRate	OrigDataStartFrame	OrigNumFrames
48.0	48.0	6	27	m	48.0	202	540
Frame#	Time	RHip			RKnee			RAnkle			RBigToe			RSmallToe			RHeel			LHip			LKnee			LAnkle			LBigToe			LSmallToe			LHeel			Neck			Head			Nose			RShoulder			RElbow			RWrist			RThumb			RIndex			RPinky			LShoulder			LElbow			LWrist			LThumb			LIndex			LPinky			
		X1	Y1	Z1	X2	Y2	Z2	X3	Y3	Z3	X4	Y4	Z4	X5	Y5	Z5	X6	Y6	Z6	X7	Y7	Z7	X8	Y8	Z8	X9	Y9	Z9	X10	Y10	Z10	X11	Y11	Z11	X12	Y12	Z12	X13	Y13	Z13	X14	Y14	Z14	X15	Y15	Z15	X16	Y16	Z16	X17	Y17	Z17	X18	Y18	Z18	X19	Y19	Z19	X20	Y20	Z20	X21	Y21	Z21	X22	Y22	Z22	X23	Y23	Z23	X24	Y24	Z24	X25	Y25	Z25	X26	Y26	Z26	X27	Y27	Z27	
202	4.208333333333333	0.27815916748162994	0.7838379221620584	0.6505156673018069	0.2723310393855687	0.7521658011352975	0.9672175291640805	0.23326115805912803	0.8613009646807852	1.3420608131569747	0.2369247161602731	0.695937512374232	1.3665604634625057	0.28923367330038074	0.7147066667501776	1.365713806086246	0.1960421624665144	0.951289783764809	1.409679980946069	0.054517147361448526	0.7378839363730793	0.6340067934942252	0.09531058271773	0.6766785521932118	0.946900793189366	0.03646666892446459	0.8179934875105495	1.3401581565061764	0.0756662399965201	0.6599819777211664	1.3453774762119872	0.019730997203881592	0.6502726474711482	1.330333025255245	0.04361329089274306	0.8656360221243221	1.376612116252953	0.24931723710888018	0.525902047058956	0.1517715743146988	0.2785209407283017	0.3616553217712932	-0.11212232283568307	0.2871391103124763	0.3361356311737347	0.04343632198400896	0.38533737453073846	0.6134168072968911	0.19113322684174858	0.40373109950652986	0.739510732757045	0.4244277234032903	0.379206520171563	0.7050466754264468	0.662267383553334	0.3268045698216283	0.6820974522984631	0.7621013696208063	0.33564669948689874	0.6747101681891311	0.7805771029621563	0.3495696943004539	0.7041078540760204	0.7812089921119647	0.08465190082889983	0.48627558104059765	0.19362622154908604	-0.033457572836062724	0.6488277463853985	0.4521214600402796	0.003104070094783074	0.6047841660113726	0.663499076247412	0.04816426163562922	0.5925749134607707	0.7437402104964024	0.026448998734062354	0.6043222308492243	0.7952334883851203	-0.012920084600197848	0.6041828201651088	0.7830266271061692
203	4.229166666666667	0.27338972513386267	0.7930780437244431	0.6538172575413759	0.2749811535058034	0.7544594384980468	0.9640584580280658	0.23299670721793497	0.8627568520654154	1.344122125679483	0.23703547384349793	0.6954684497387745	1.3662256728185351	0.2917053511372937	0.7105814932106326	1.3654496400452583	0.19603520163019927	0.9507118179890354	1.405838045427226	0.05371858105157761	0.7380329911794548	0.6368183490724344	0.09648119671073052	0.6756641476148881	0.9423902744596341	0.03654481310203267	0.8187623127636763	1.340361174071841	0.07383048710100175	0.6590380162886049	1.3461795526376057	0.020433959169092943	0.652497264145	1.331074989608818	0.043496650739522025	0.8654909050986455	1.3764027376492165	0.2492606989026725	0.5262972026319396	0.1620546064730462	0.2812106721537286	0.3617545657815718	-0.1004159426477734	0.29174422519968113	0.3266177819289723	0.054417058941865146	0.3848490980006152	0.6147396959524173	0.19382672537714776	0.40329800730302423	0.7401407202847416	0.4332696962438165	0.37348717084303545	0.6939924233707946	0.6676887845619812	0.32361170351813945	0.6721006925147217	0.766517607183669	0.33666838762712814	0.6675983882387924	0.7845964487809505	0.3462276823281642	0.6927490912111545	0.7808521217104745	0.0867588510090541	0.48094805982168404	0.1975302033106051	-0.03631886658689072	0.6499775775561356	0.4615780185138883	0.007054441393299638	0.6000452598299337	0.6725658586046	0.0603418241355898	0.5660255579933381	0.7412337711428968	0.038300583756947976	0.5893051354836932	0.8045784567783949	-0.01042533028980724	0.6005555592729643	0.7949172435510099
204	4.25	0.26946085291016314	0.7999823516901124	0.6579527656178041	0.2776777821367649	0.7551733036245752	0.9605217131944322	0.23219611884956914	0.8675140000584003	1.3448651392373476	0.23694955383082883	0.6953604458279119	1.3660103939533252	0.29306510049775925	0.7156805013019267	1.3687769029478916	0.19644962967367516	0.9501991786023207	1.399625578777372	0.05356573822668946	0.7383486480790816	0.6380470392948409	0.10049635227031588	0.6715654261054227	0.9367516064080363	0.03710596595080355	0.823223791936784	1.3426759882070303	0.0718544538212536	0.6572747522572493	1.3440936598897721	0.021990692139797617	0.6566691172457628	1.3309882873262362	0.04354645301082964	0.8650944869350541	1.377613232842585	0.24956507509745107	0.5304165555175753	0.169906860062113	0.28354240911559714	0.3626522352263144	-0.0895238610807688	0.2947868140453242	0.31924173602968287	0.06388799034055566	0.3844176829361663	0.6153727121180816	0.1991246957936277	0.40315900345763495	0.7412611711529771	0.44626325518227705	0.36780809061445596	0.6863863361112302	0.6731121658926477	0.3211428578692279	0.6619793274111258	0.770403308552006	0.33622147770259825	0.6625347575610085	0.7904131776648147	0.34477771010102254	0.6827554259773841	0.7807461087318331	0.08765609519840137	0.4779211719352288	0.20286742498003427	-0.037817119250886724	0.6510176352329919	0.47203988116760043	0.012756954796864171	0.5959094246630274	0.6829419468024536	0.07027937236956565	0.5458890552724688	0.7425911259905799	0.05152642781591181	0.5683016247545739	0.8091877339007484	-0.00526087469232071	0.6006470933869901	0.8065076353073333
205	4.270833333333333	0.2663597434014957	0.8021711993361982	0.662002371152199	0.2797067317663975	0.7556896478047602	0.9584204336034725	0.23182826939755963	0.87511352186916	1.3456881052196152	0.23699595088086395	0.6955807438665016	1.3660207742018664	0.29272865976570195	0.7280066171240747	1.3742264548960272	0.1970320731650275	0.9498677065274593	1.3965753422486493	0.0528315540752848	0.7382916405902422	0.6390132588274215	0.1053414433167804	0.665583888830781	0.9330542529619403	0.03818325406406221	0.8304138406105726	1.3475901161689499	0.07101066633281292	0.6556759226675586	1.3415501282291733	0.02404503733790961	0.6586212420398301	1.3296952900481196	0.044606593006035276	0.8648210319808995	1.381805232441877	0.2508301193130542	0.5338341844846431	0.17610275537640366	0.28465145929440233	0.3640513636716979	-0.08230610988527196	0.29627230155216183	0.3163771399609788	0.07185547899587745	0.384058975974319	0.6145355642127639	0.2082227634512333	0.4030974385511706	0.7426580717295292	0.4619406391535128	0.36072366865106154	0.6798328136312399	0.6792783546871725	0.3186857023143159	0.65779360697429	0.7765935747019892	0.3324105590437359	0.660942085056351	0.7974645692826058	0.3430176484231794	0.6801946566239173	0.7856477085997828	0.08752533094851761	0.47786411534442425	0.21080104076051612	-0.036012155175754075	0.6501992394699347	0.48207795207941523	0.01995751753411161	0.5934193152901598	0.6935924400792731	0.07618880896740149	0.5418363063924971	0.7520419758505679	0.06408006892375735	0.5493095717453866	0.8089836590880015	0.003141056857999646	0.6059336905242136	0.8164552397797591
206	4.291666666666667	0.26007473404764686	0.8049023276236833	0.6655359178439559	0.28039099223103997	0.7555250336793415	0.9567433053263271	0.23219789991099465	0.8810173503601925	1.3466375324401132	0.2370966984352919	0.6957488908992568	1.3660955600897864	0.29182121858941523	0.7366829659671801	1.3769597373985376	0.19706972044987905	0.9498006557520019	1.3991720279358766	0.05015054503071943	0.7377631657461932	0.6408871041617473	0.108078700328406	0.6614072062673962	0.9317125637709657	0.03945583998659019	0.8360661307757687	1.352655415229346	0.07093625421972025	0.654807401888515	1.3408612651054077	0.027118632592672203	0.6538387308379164	1.3282015580044413	0.04708916187556302	0.8669973098841033	1.3882620843527116	0.25269547871306225	0.5319662169693009	0.1828115760337105	0.2867418999184768	0.36145275859065246	-0.07659340456810214	0.29731861288441236	0.3144933943575265	0.07982511596227276	0.3848314141251984	0.6100510111131561	0.21971267443995507	0.4034249330697198	0.7442088762324892	0.4760038869572459	0.3520392765363877	0.6752144950359332	0.6873800663370481	0.31470948423441025	0.6524702458457738	0.7842505138571132	0.327875603997474	0.660699991508315	0.8045599771450862	0.34030428131449986	0.6854664266002841	0.7971620571119999	0.08726933269176325	0.4794763406420976	0.22058144553585124	-0.03236236671018768	0.648316600423585	0.4922662164158085	0.028998998696125388	0.5891484259399093	0.7031870578919207	0.08179021077510347	0.554704480953045	0.77028757400216	0.07383312375564739	0.537794408600541	0.8080951151160074	0.015582211512776743	0.6078419891919166	0.8223116573221784
207	4.3125	0.24961052342528686	0.812032983325611	0.6690568211434191	0.279273076096028	0.7541961797816521	0.954486864887933	0.23192169233682208	0.8809965130216144	1.3464115651101483	0.2371545040318288	0.6958585691562567	1.366149645533946	0.29121842002734366	0.7377443631854451	1.3758453317677848	0.19652752694457148	0.9497725417243326	1.4038964925749273	0.04626175081080694	0.7372507019078213	0.6439591558913849	0.10834060353573366	0.6596146463952142	0.9311337020324386	0.040390784515745716	0.8380415385234489	1.3541924076469014	0.0706060655068956	0.6544802862984234	1.341925769874193	0.030938917964694047	0.6445394995933622	1.3271824578879527	0.04980871555197956	0.8734296490761493	1.3934558208963495	0.25394298244098484	0.5267106254070021	0.18992394468807822	0.2922710611197535	0.3495922571555159	-0.06948004612891022	0.2984936082479091	0.31121358581212794	0.08842001869540514	0.38670261699743697	0.6038162718942102	0.23033690566788195	0.403888826564081	0.7458532424127533	0.4860409168135918	0.3442824219413064	0.674348075066125	0.6965449538515811	0.30891176442632073	0.6421816467688839	0.790181000039185	0.3247222234544867	0.6595714083943746	0.8105690110107259	0.3374185098126522	0.6939585388623071	0.810577576509647	0.0873052124809706	0.4802607153274233	0.2307930980777247	-0.02962114716785675	0.6468611999205492	0.5032020909933135	0.04046639110644809	0.5789477088058574	0.7097809333448479	0.09109597335109211	0.5748219423069417	0.7907515147314572	0.07963253204184591	0.5332180379333581	0.8096435890125071	0.031049281565237927	0.5961195123489089	0.8228456610004875
